<?xml version="1.0" encoding="utf-8"?>
<svg viewBox="0 0 750 500" style="enable-background:new 0 0 750 500;" xmlns="http://www.w3.org/2000/svg">
  <g id="BACKGROUND">
    <rect style="fill: rgba(20, 33, 62, 0);" width="750" height="500"/>
  </g>
  <g id="OBJECTS">
    <g transform="matrix(1, 0, 0, 1, 0, 6.102993)">
      <path style="fill: rgb(53, 53, 53);" d="M 466.058 221.789 C 465.753 228.463 464.171 234.817 461.64 240.718 C 451.783 263.7 427.543 279.793 408.405 280.995 C 376.627 282.992 353.916 254.334 350.752 221.789 C 348.011 193.594 358.024 194.014 365.481 182.262 C 374.517 168.023 391.356 160.154 408.405 160.154 C 440.246 160.154 468.065 177.841 466.058 221.789 Z"/>
      <rect x="386.063" y="277.945" style="fill:#E3B5AA;" width="44.686" height="55.943"/>
      <g>
        <g>
          <path style="fill:#E3B5AA;" d="M458.6,245.315c7.971-12.096,18.113-12.626,22.348,1.679 c4.235,14.306-9.742,26.078-21.123,21.734C448.445,264.384,458.6,245.315,458.6,245.315z"/>
          <path style="fill:#D78F97;" d="M468.01,245.631c5.339-0.977,8.076,14.931-3.633,15.456l2.408-5.55l-2.26-4.618L468.01,245.631z"/>
          <path style="fill:none;stroke:#C87E84;stroke-width:0.5;stroke-miterlimit:10;" d="M462.625,263.268 c6.825-7.275,1.9-12.349,1.9-12.349s6.496-13.324,9.1-3.112"/>
        </g>
      </g>
      <g>
        <g>
          <path style="fill:#E3B5AA;" d="M357.838,245.315c-7.971-12.096-18.113-12.626-22.348,1.679 c-4.235,14.306,9.742,26.078,21.123,21.734C367.993,264.384,357.838,245.315,357.838,245.315z"/>
          <path style="fill:#D78F97;" d="M348.428,245.631c-5.339-0.977-8.076,14.931,3.634,15.456l-2.408-5.55l2.26-4.618 L348.428,245.631z"/>
          <path style="fill:none;stroke:#C87E84;stroke-width:0.5;stroke-miterlimit:10;" d="M353.813,263.268 c-6.826-7.275-1.9-12.349-1.9-12.349s-6.496-13.324-9.1-3.112"/>
        </g>
      </g>
      <path style="fill:#C87E84;" d="M430.749,279.182v20.811c-16.058,21.76-44.686,14.685-44.686,14.685l0.501-35.497H430.749z"/>
      <path style="fill:#E3B5AA;" d="M408.405,303.029L408.405,303.029c-26.676,0-48.3-21.625-48.3-48.3v-35.296 c0-18.017,14.606-32.623,32.623-32.623h31.355c18.017,0,32.623,14.606,32.623,32.623v35.296 C456.705,281.404,435.081,303.029,408.405,303.029z"/>
      <path style="fill: none; stroke-miterlimit: 10; stroke: rgb(53, 53, 53);" d="M415.837,261.043c0,4.104-3.327,7.431-7.431,7.431 c-4.104,0-7.431-3.327-7.431-7.431"/>
      <path style="fill: rgb(53, 53, 53);" d="M365.208,188.97c0,0-8.46-14.023,2.136-26.387C367.344,162.583,374.957,176.679,365.208,188.97z"/>
      <path style="fill: rgb(53, 53, 53);" d="M369.505,185.64c0,0-11.78,11.377-26.198,3.808C343.307,189.448,355.348,178.881,369.505,185.64z"/>
      <path style="fill: rgb(53, 53, 53);" d="M389.225,243.706c0,3.993-1.701,7.231-3.799,7.231s-3.799-3.237-3.799-7.231 c0-3.994,1.701-7.231,3.799-7.231S389.225,239.713,389.225,243.706z"/>
      <ellipse transform="matrix(0.2622 -0.965 0.965 0.2622 48.261 549.4594)" style="fill:none;stroke:#FFFFFF;stroke-width:4;stroke-miterlimit:10;" cx="383.461" cy="243.168" rx="19.423" ry="19.423"/>
      <path style="fill: rgb(53, 53, 53);" d="M435.184,243.706c0,3.993-1.701,7.231-3.799,7.231s-3.799-3.237-3.799-7.231 c0-3.994,1.701-7.231,3.799-7.231S435.184,239.713,435.184,243.706z"/>
      <ellipse transform="matrix(0.2669 -0.9637 0.9637 0.2669 83.3288 595.8837)" style="fill:none;stroke:#FFFFFF;stroke-width:4;stroke-miterlimit:10;" cx="433.349" cy="243.168" rx="19.423" ry="19.423"/>
      <path style="fill: rgb(53, 53, 53);" d="M366.091,200.594c0,0,30.685-16.176,51.074-4.452c20.389,11.724,22.683,35.936,42.817,29.67 c0,0,15.292-6.732-1.529-30.18s-28.33-28.035-50.228-22.938S372.077,181.756,366.091,200.594z"/>
      <path style="fill: rgb(27, 27, 27);" d="M364.918,200.362c0,0,10.129-13.43,24.307-16.98c14.178-3.55,29.86,13.89,29.86,13.89 S382.758,192.092,364.918,200.362z"/>
      <path style="fill: rgb(53, 53, 53);" d="M360.179,217.255c0,0,3.417,24.925,0,40.137C360.179,257.391,355.185,218.742,360.179,217.255z"/>
      <path style="fill: rgb(53, 53, 53);" d="M456.355,217.255c0,0-3.417,24.925,0,40.137C456.355,257.391,461.349,218.742,456.355,217.255z"/>
      <path style="fill: rgb(53, 53, 53);" d="M394.084,215.309c-5.27-2.523-14.644-5.292-23.329,0.894c-1.457,1.038-0.903,3.328,0.859,3.632 c2.786,0.481,6.784,0.978,11.308,0.949c3.517-0.022,7.679-0.888,10.788-1.687C395.537,218.628,395.786,216.124,394.084,215.309z"/>
      <path style="fill: rgb(53, 53, 53);" d="M444.98,215.309c-5.27-2.523-14.644-5.292-23.329,0.894c-1.456,1.038-0.903,3.328,0.859,3.632 c2.786,0.481,6.784,0.978,11.308,0.949c3.517-0.022,7.679-0.888,10.788-1.687C446.433,218.628,446.681,216.124,444.98,215.309z"/>
      <g>
        <g>
          <path style="fill:#C33E5D;" d="M424.743,278.489c-0.501,0.893-1.093,1.828-1.904,2.759c-2.582,3.108-6.967,6.094-14.478,6.232 l-0.011,0.033l-0.551-0.011l-0.021-0.045c-7.043-0.138-11.383-2.789-14-5.714c-1.014-1.099-1.783-2.26-2.335-3.305 c-1.251-2.402-1.577-4.29-1.577-4.29l36.471,0.068C426.336,274.216,426.035,276.103,424.743,278.489z"/>
        </g>
        <path style="fill: rgb(53, 53, 53);" d="M424.743,278.489c-0.501,0.893-1.093,1.828-1.904,2.759c-8.371-3.677-18.44-4.448-29.061,0.495 c-1.014-1.099-1.783-2.26-2.335-3.305c-1.251-2.402-1.577-4.29-1.577-4.29l36.471,0.068 C426.336,274.216,426.035,276.103,424.743,278.489z"/>
      </g>
      <path style="fill: rgb(253, 163, 18);" d="M563.431,472.846l-326.96,0.34c0,0,6.1-12.76,14.88-29.67c0.65-1.25,1.32-2.53,2-3.83 c11.99-22.87,28.12-51.76,40.71-67.43c14.5-18.04,48.76-30.9,72.03-37.93c13.56-4.09,23.38-6.2,23.38-6.2h37.56 c0,0,8.82,1.89,21.28,5.58c23.25,6.87,58.01,20.97,74.13,38.55c3.54,3.86,6.87,8.53,9.99,13.71 C552.271,418.936,563.431,472.846,563.431,472.846z"/>
      <path style="opacity:0.5;fill:#D9751F;" d="M563.431,472.846l-326.96,0.34c0,0,6.1-12.76,14.88-29.67 c163.161,47.962,249.143-30.638,268.763-51.915c3.168-3.435,7.567-5.504,12.238-5.633l0.079-0.002 C552.271,418.936,563.431,472.846,563.431,472.846z"/>
      <line style="fill:none;stroke:#FFFFFF;stroke-width:4;stroke-miterlimit:10;" x1="403.275" y1="246.471" x2="413.534" y2="246.471"/>
      <path style="fill:#E3B5AA;" d="M448.31,333.702c-40.473,44.531-82.219,0.629-82.219,0.629c13.561-4.098,23.383-6.209,23.383-6.209 h37.558C427.033,328.122,435.852,330.018,448.31,333.702z"/>
      <g>
        <line style="fill:none;stroke:#DC831E;stroke-width:3;stroke-miterlimit:10;" x1="319.042" y1="422.463" x2="319.042" y2="473.247"/>
        <line style="fill:none;stroke:#DC831E;stroke-width:3;stroke-miterlimit:10;" x1="319.042" y1="454.831" x2="305.406" y2="437.446"/>
      </g>
      <g>
        <line style="fill:none;stroke:#DC831E;stroke-width:3;stroke-miterlimit:10;" x1="496.844" y1="422.463" x2="496.844" y2="473.247"/>
        <line style="fill:none;stroke:#DC831E;stroke-width:3;stroke-miterlimit:10;" x1="496.844" y1="454.831" x2="508.951" y2="439.394"/>
      </g>
      <path style="fill:none;stroke:#DC831E;stroke-width:3;stroke-miterlimit:10;" d="M364.153,353.658c0,0,50.184,34.272,84.157-1.664 "/>
      <path style="fill: rgb(53, 53, 53);" d="M364.927,179.592c11.268-47.359,124.155-42.148,103.149,50.059 c-6.292,27.621-52.3-62.786-92.008-40.606c-2.968,1.658-6.667,1.229-9.149-1.095l0,0 C364.64,185.815,364.204,182.631,364.927,179.592z"/>
    </g>
    <g>
      <g transform="matrix(1, 0, 0, 1, 4.359281, 4.359281)">
        <path style="fill: rgb(20, 33, 62);" d="M426.931,472.876c-0.03,0.01-0.07,0.02-0.11,0.02c-0.27,0.03-0.55,0.04-0.83,0.04h-218.99 c-2.91,0-5.5-1.35-7.19-3.47c-1.26-1.57-2.01-3.57-2.01-5.74l-0.03-0.1l-34.1-96.35c-2.61-7.36,2.85-15.09,10.66-15.09h142.18 c4.8,0,9.07,3.02,10.67,7.54l36.75,103.82c0.04,0.12,0.06,0.18,0.06,0.18h62.21C431.911,463.727,432.541,472.267,426.931,472.876 z"/>
        <path style="fill:#4B7195;" d="M426.203,463.725H363.99c0,0-0.018-0.063-0.054-0.18L327.18,359.724 c-1.602-4.519-5.869-7.535-10.667-7.535h-4.753c0,0,10.622,0.693,13.278,10.199c2.656,9.497,38.952,110.347,38.952,110.347 l2.683,0.198h59.315c0.288,0,0.567-0.009,0.837-0.036C432.549,472.376,431.946,463.725,426.203,463.725z"/>
      </g>
      <path style="opacity: 0.4; fill: rgb(16, 20, 21);" d="M 431.29 477.235 C 431.26 477.245 431.22 477.255 431.18 477.255 C 430.91 477.285 430.63 477.295 430.35 477.295 L 211.36 477.295 C 208.45 477.295 205.86 475.945 204.17 473.825 C 333.61 484.945 320.87 356.545 320.87 356.545 C 325.67 356.545 329.94 359.565 331.54 364.085 L 368.29 467.905 C 368.33 468.025 368.35 468.085 368.35 468.085 L 429.58 468.085 C 430.24 471.116 430.82 474.165 431.29 477.235 Z"/>
    </g>
    <g>
      <g>
        <g>
          <g/>
        </g>
        <g/>
      </g>
      <g>
        <g>
          <g>
            <path style="fill: rgb(20, 33, 62);" d="M178.448,440.817v3.223c-5.826,0.666-7.251,5.593-7.251,11.59v1.983 c0,5.996,1.426,10.924,7.251,11.59v3.207H67.058c-4.571,0-8.274-3.703-8.274-8.274v-15.03c0-4.571,3.703-8.289,8.274-8.289 H178.448z"/>
            <path style="fill:#FFFFFF;" d="M176.712,465.903c0.666,1.58-0.558,3.3-2.262,3.3l-106.447,0.077v-25.318l106.447,0.078 c0.62,0,1.178,0.232,1.596,0.604c0.744,0.62,1.085,1.689,0.666,2.696c-0.883,2.107-0.852,5.036-0.852,8.289v1.983 C175.86,460.867,175.829,463.796,176.712,465.903z"/>
            <path style="opacity:0.4;fill:#A3D5E6;" d="M176.046,444.645c-2.045,0.108-96.112,4.974-102.558,14.116 c-1.751,2.479-3.734,3.858-5.485,4.137v-18.934l106.447,0.078C175.07,444.04,175.628,444.273,176.046,444.645z"/>
          </g>
          <path style="fill: rgb(20, 33, 62);" d="M73.488,472.417h-9.36c-2.951,0-5.344-2.392-5.344-5.344v-20.905 c0-2.951,2.392-5.344,5.344-5.344h9.36V472.417z"/>
        </g>
        <g>
          <rect x="73.669" y="454.774" style="opacity: 0.4; fill: rgb(53, 53, 53);" width="102.191" height="2.282"/>
          <rect x="73.669" y="449.635" style="opacity: 0.4; fill: rgb(53, 53, 53);" width="102.191" height="2.282"/>
          <rect x="73.669" y="461.311" style="opacity: 0.4; fill: rgb(53, 53, 53);" width="102.191" height="2.282"/>
        </g>
        <polygon style="fill: rgb(253, 163, 18);" points="164.682,466.539 158.941,460.813 153.2,466.539 153.2,450.776 164.682,450.776 &#9;&#9;&#9;"/>
      </g>
    </g>
    <g>
      <path style="fill:#47547C;" d="M717.851,486.137v2.31c0,7.06-5.73,12.78-12.79,12.78H51.021c-5.95,0-10.95-4.06-12.38-9.55 c0-0.01,0-0.02-0.01-0.03c-0.26-1.03-0.4-2.1-0.4-3.2v-2.31c0-7.06,5.72-12.78,12.79-12.78h654.04 C712.121,473.357,717.851,479.077,717.851,486.137z"/>
      <path style="opacity:0.5;fill:#2B2B3F;" d="M717.851,486.137v2.31c0,7.06-5.73,12.78-12.79,12.78H51.021 c-5.95,0-10.95-4.06-12.38-9.55c0-0.01,0-0.02-0.01-0.03c-0.27-2.05-0.4-3.2-0.4-3.2c366.754,12.78,666.83-15.09,666.83-15.09 C712.121,473.357,717.851,479.077,717.851,486.137z"/>
    </g>
    <g>
      <g/>
      <g/>
      <g/>
      <path style="fill:#0C8068;" d="M584.774,383.302c0,0,0.004,0.038,0.012,0.119C584.766,383.336,584.774,383.302,584.774,383.302z"/>
    </g>
  </g>
</svg>